<?xml version="1.0" encoding="utf-8"?>
<!-- Generator: Adobe Illustrator 28.2.0, SVG Export Plug-In . SVG Version: 6.00 Build 0)  -->
<svg version="1.1" id="Layer_1" xmlns="http://www.w3.org/2000/svg" xmlns:xlink="http://www.w3.org/1999/xlink" x="0px" y="0px"
	 viewBox="0 0 337 95" style="enable-background:new 0 0 337 95;" xml:space="preserve">
<style type="text/css">
	.st0{fill:#FFFFFF;}
</style>
<g>
	<g>
		<g>
			<g>
				<path class="st0" d="M68.6,5.9C74.1,8,79,10.8,83,14.1c4.1,3.4,7.2,7.4,9.2,11.6c2.1,4.4,2.9,9.1,2.4,13.7
					c-0.5,4.8-2.4,9.6-5.5,13.9c1.9-4.8,2.4-9.6,1.6-14.1c-0.7-4.3-2.6-8.4-5.3-12c-2.6-3.4-6.1-6.4-10.1-8.7
					c-3.9-2.3-8.3-4-12.8-5.1c-3.6-0.9-5.4-3.4-4-5.6c1.3-2.2,5.2-3.2,8.7-2.4c0.4,0.1,0.8,0.2,1.2,0.4L68.6,5.9z"/>
			</g>
			<g>
				<path class="st0" d="M118.5,35.6c-0.5,5.1-2.5,10.1-6,14.5C109,54.8,104,58.7,98,61.8c-6.2,3.1-13.3,5.2-20.6,6
					c-7.4,0.9-15,0.5-22-1c7.2,0.3,14.4-0.6,20.8-2.4c6.3-1.8,11.8-4.6,16.2-8c4.2-3.3,7.3-7.1,9.1-11c1.8-3.8,2.3-7.8,1.8-11.5
					c-0.4-2.9,2.7-5.1,6.8-5s7.9,2.5,8.5,5.5c0.1,0.4,0.1,0.7,0.1,1.1L118.5,35.6z"/>
			</g>
			<g>
				<path class="st0" d="M94.5,89.7c-9,0.6-18.1-0.4-26.5-2.8c-8.3-2.4-15.7-6-21.6-10.6c-5.8-4.4-10.1-9.5-12.8-14.9
					C31,56.3,29.9,51,30.2,46c1.1,4.9,3.6,9.6,7.3,13.7c3.8,4.3,8.8,7.9,14.5,10.6c5.9,2.8,12.4,4.5,18.9,5.1
					c6.6,0.6,13.1,0.1,19-1.3c4.7-1.1,9.9,1.2,11.9,5.2c2,4.2-0.2,8.7-5.1,10c-0.6,0.2-1.2,0.3-1.8,0.3L94.5,89.7z"/>
			</g>
			<g>
				<path class="st0" d="M11.1,79.6c-2-6.8-2.1-13.6-0.7-20c1.4-6.1,4.2-11.7,8-16.6c3.7-4.7,8.4-8.7,13.6-11.9
					c5.1-3.1,10.7-5.4,16.5-6.8c-5.3,2.2-10,5.1-13.8,8.6c-4,3.5-7,7.6-8.9,12c-2,4.5-2.8,9.3-2.3,14c0.5,4.9,2.3,9.6,5.2,13.8
					c2.4,3.5,0.7,8.3-4,10.8C19.8,86,14,85,11.8,81.3c-0.3-0.4-0.5-0.9-0.6-1.4L11.1,79.6z"/>
			</g>
			<g>
				<path class="st0" d="M10.4,24.3c6.1-3,12.7-5.1,19.3-6.4c6.5-1.2,13.1-1.6,19.3-1.2c6.3,0.4,12.3,1.6,17.7,3.6
					c5.5,2,10.5,4.6,14.6,7.8c-4.9-2.6-10.3-4.5-15.9-5.6c-5.5-1.1-11.2-1.5-16.7-1.1c-5.5,0.4-10.9,1.5-15.8,3.2
					c-5,1.8-9.5,4.1-13.4,7c-3.1,2.3-8.2,2.7-11.1,0.9c-2.9-1.8-2.6-5.1,0.5-7.3c0.4-0.3,0.8-0.5,1.2-0.7L10.4,24.3z"/>
			</g>
		</g>
		<path class="st0" d="M72.3,48.4c-4.7,3.7-12.7,3.7-17.5,0c-4.7-3.6-4.4-9.1,0.4-12.4c4.6-3.2,11.9-3.2,16.6,0
			C76.5,39.3,76.9,44.9,72.3,48.4z"/>
	</g>
	<g>
		<path class="st0" d="M139.4,55.2V26.9c0-8.6,4.3-13.5,12.6-13.5s12.6,4.9,12.6,13.5v4.6h-8v-5.1c0-3.8-1.7-5.3-4.4-5.3
			s-4.4,1.5-4.4,5.3v29.4c0,3.8,1.7,5.2,4.4,5.2s4.4-1.4,4.4-5.2V45.3h-4.2v-7.7h12.2v17.6c0,8.6-4.3,13.5-12.6,13.5
			S139.4,63.8,139.4,55.2z"/>
		<path class="st0" d="M186.9,57.4h-9.8l-1.5,10.5h-7.8l8.8-53.7H188l8.8,53.7h-8.4L186.9,57.4z M185.8,50.1L182,23l-3.8,27.1H185.8
			z"/>
		<path class="st0" d="M200.8,14.2h8.4v46h13.9v7.7h-22.3V14.2z"/>
		<path class="st0" d="M244.2,57.4h-9.8L233,67.9h-7.8l8.8-53.7h11.4l8.8,53.7h-8.4L244.2,57.4z M243.1,50.1L239.3,23l-3.8,27.1
			H243.1z"/>
		<path class="st0" d="M265.6,40.4l-9.3-26.2h8.9l5.8,17.6l5.9-17.6h8l-9.3,26.2l9.8,27.5h-8.9l-6.2-19l-6.4,19h-8L265.6,40.4z"/>
		<path class="st0" d="M289.3,14.2h8.4v53.7h-8.4V14.2z"/>
		<path class="st0" d="M320.7,57.4H311l-1.5,10.5h-7.8l8.8-53.7h11.4l8.8,53.7h-8.4L320.7,57.4z M319.6,50.1L315.8,23L312,50.1
			H319.6z"/>
	</g>
</g>
</svg>
