<?xml version="1.0" encoding="utf-8"?>
<!-- Generator: Adobe Illustrator 28.2.0, SVG Export Plug-In . SVG Version: 6.00 Build 0)  -->
<svg version="1.1" id="Layer_1" xmlns="http://www.w3.org/2000/svg" xmlns:xlink="http://www.w3.org/1999/xlink" x="0px" y="0px"
	 viewBox="0 0 337 95" style="enable-background:new 0 0 337 95;" xml:space="preserve">
<style type="text/css">
	.st0{fill:#0F1533;}
	.st1{fill:#FFAB11;}
</style>
<g>
	<g>
		<g>
			<g>
				<path class="st0" d="M68.55,5.87c5.51,2.13,10.44,4.95,14.41,8.26c4.11,3.42,7.25,7.38,9.23,11.59
					c2.06,4.39,2.88,9.08,2.4,13.71c-0.49,4.83-2.41,9.58-5.54,13.89c1.87-4.77,2.38-9.6,1.64-14.11
					c-0.71-4.35-2.57-8.42-5.29-11.97c-2.64-3.44-6.12-6.4-10.08-8.74c-3.88-2.29-8.26-4-12.83-5.1c-3.62-0.87-5.4-3.39-4.04-5.59
					c1.33-2.15,5.19-3.21,8.68-2.4c0.43,0.1,0.84,0.22,1.22,0.37L68.55,5.87z"/>
			</g>
			<g>
				<path class="st0" d="M118.51,35.59c-0.51,5.1-2.54,10.09-5.97,14.53c-3.56,4.63-8.57,8.62-14.56,11.66
					c-6.16,3.12-13.26,5.18-20.64,6.04c-7.44,0.87-15.01,0.5-22.03-0.97c7.25,0.29,14.4-0.57,20.81-2.44
					c6.32-1.84,11.83-4.61,16.18-7.97c4.22-3.28,7.29-7.08,9.09-11.03c1.75-3.82,2.3-7.76,1.82-11.53c-0.38-2.92,2.66-5.13,6.77-5
					s7.9,2.54,8.48,5.47c0.07,0.37,0.09,0.73,0.06,1.07L118.51,35.59z"/>
			</g>
			<g>
				<path class="st0" d="M94.53,89.69c-8.99,0.61-18.12-0.36-26.51-2.77c-8.27-2.36-15.65-6.04-21.6-10.57
					c-5.76-4.39-10.1-9.52-12.81-14.88c-2.61-5.14-3.69-10.46-3.4-15.5c1.1,4.88,3.59,9.59,7.28,13.73c3.8,4.28,8.81,7.9,14.55,10.6
					c5.86,2.75,12.37,4.48,18.92,5.1c6.57,0.63,13.05,0.14,18.95-1.3c4.66-1.14,9.94,1.16,11.9,5.24c2.02,4.2-0.22,8.74-5.1,10.03
					c-0.61,0.16-1.23,0.26-1.85,0.31L94.53,89.69z"/>
			</g>
			<g>
				<path class="st0" d="M11.06,79.62c-1.96-6.77-2.14-13.62-0.71-20c1.36-6.07,4.16-11.72,8-16.61c3.69-4.68,8.36-8.71,13.59-11.87
					c5.07-3.07,10.73-5.36,16.53-6.83c-5.3,2.21-10.02,5.13-13.83,8.56c-3.95,3.54-6.97,7.63-8.88,11.97
					c-1.98,4.51-2.76,9.3-2.3,13.96c0.47,4.86,2.27,9.56,5.18,13.79c2.4,3.47,0.66,8.35-4.02,10.84c-4.78,2.55-10.6,1.56-12.86-2.16
					c-0.28-0.45-0.48-0.93-0.63-1.41L11.06,79.62z"/>
			</g>
			<g>
				<path class="st0" d="M10.39,24.31c6.1-2.97,12.69-5.12,19.28-6.37c6.49-1.24,13.07-1.62,19.33-1.21
					c6.27,0.42,12.3,1.65,17.73,3.57c5.52,1.95,10.47,4.64,14.56,7.84c-4.92-2.63-10.35-4.53-15.9-5.64
					c-5.5-1.1-11.2-1.45-16.69-1.08c-5.53,0.38-10.92,1.48-15.82,3.2c-5,1.75-9.52,4.14-13.35,6.99c-3.13,2.33-8.16,2.73-11.12,0.86
					c-2.92-1.84-2.63-5.12,0.53-7.32c0.39-0.27,0.8-0.51,1.23-0.72L10.39,24.31z"/>
			</g>
		</g>
		<path class="st1" d="M72.28,48.41c-4.73,3.66-12.68,3.66-17.47,0c-4.66-3.56-4.38-9.11,0.38-12.39
			c4.62-3.18,11.92-3.16,16.56,0.04C76.51,39.35,76.86,44.87,72.28,48.41z"/>
	</g>
	<g>
		<path class="st0" d="M139.45,55.17V26.93c0-8.6,4.3-13.51,12.59-13.51s12.59,4.91,12.59,13.51v4.6h-7.98v-5.14
			c0-3.84-1.69-5.3-4.38-5.3s-4.38,1.46-4.38,5.3v29.4c0,3.84,1.69,5.22,4.38,5.22s4.38-1.38,4.38-5.22V45.28h-4.22V37.6h12.2v17.58
			c0,8.6-4.3,13.51-12.59,13.51S139.45,63.77,139.45,55.17z"/>
		<path class="st0" d="M186.88,57.4h-9.75l-1.46,10.51h-7.83l8.75-53.73h11.44l8.75,53.73h-8.44L186.88,57.4z M185.8,50.11
			l-3.84-27.09l-3.76,27.09H185.8z"/>
		<path class="st0" d="M200.77,14.19h8.44v46.05h13.89v7.67h-22.33V14.19z"/>
		<path class="st0" d="M244.21,57.4h-9.75L233,67.91h-7.83l8.75-53.73h11.44l8.75,53.73h-8.44L244.21,57.4z M243.13,50.11
			l-3.84-27.09l-3.76,27.09H243.13z"/>
		<path class="st0" d="M265.62,40.43l-9.29-26.25h8.9l5.76,17.58l5.91-17.58h7.98l-9.29,26.25l9.75,27.48h-8.9l-6.22-18.96
			l-6.37,18.96h-7.98L265.62,40.43z"/>
		<path class="st0" d="M289.26,14.19h8.44v53.73h-8.44V14.19z"/>
		<path class="st0" d="M320.72,57.4h-9.75l-1.46,10.51h-7.83l8.75-53.73h11.44l8.75,53.73h-8.44L320.72,57.4z M319.65,50.11
			l-3.84-27.09l-3.76,27.09H319.65z"/>
	</g>
</g>
</svg>
