<?xml version="1.0" encoding="utf-8"?>
<!-- Generator: Adobe Illustrator 28.2.0, SVG Export Plug-In . SVG Version: 6.00 Build 0)  -->
<svg version="1.1" id="Layer_1" xmlns="http://www.w3.org/2000/svg" xmlns:xlink="http://www.w3.org/1999/xlink" x="0px" y="0px"
	 viewBox="0 0 333 260" style="enable-background:new 0 0 333 260;" xml:space="preserve">
<style type="text/css">
	.st0{fill:#0F1533;}
	.st1{fill:#FFAB11;}
</style>
<g>
	<g>
		<g>
			<path class="st0" d="M184.18,9.24c15.99,6.19,30.25,14.37,41.76,23.96c11.91,9.91,21.01,21.39,26.77,33.63
				c5.97,12.72,8.37,26.34,6.97,39.76c-1.43,14.02-7,27.79-16.04,40.27c5.43-13.83,6.91-27.82,4.75-40.92
				c-2.05-12.61-7.43-24.42-15.34-34.71c-7.67-9.97-17.72-18.56-29.23-25.34c-11.24-6.64-23.96-11.59-37.19-14.77
				c-10.48-2.51-15.67-9.83-11.72-16.21c3.86-6.24,15.04-9.29,25.15-6.94c1.27,0.3,2.43,0.65,3.54,1.08L184.18,9.24z"/>
		</g>
		<g>
			<path class="st0" d="M329.04,95.41c-1.46,14.77-7.35,29.25-17.31,42.14c-10.32,13.42-24.85,24.98-42.22,33.82
				c-17.88,9.05-38.46,15.02-59.86,17.5c-21.58,2.54-43.51,1.43-63.88-2.81c21.04,0.86,41.76-1.65,60.34-7.08
				c18.31-5.32,34.3-13.37,46.92-23.12c12.24-9.51,21.15-20.53,26.36-31.98c5.08-11.07,6.67-22.5,5.27-33.44
				c-1.11-8.48,7.7-14.88,19.64-14.5c11.91,0.38,22.9,7.37,24.61,15.86c0.22,1.05,0.27,2.11,0.16,3.11L329.04,95.41z"/>
		</g>
		<g>
			<path class="st0" d="M259.52,252.31c-26.07,1.76-52.54-1.05-76.87-8.02c-23.99-6.83-45.38-17.5-62.64-30.63
				c-16.69-12.75-29.28-27.6-37.14-43.16c-7.56-14.91-10.7-30.33-9.86-44.95c3.19,14.15,10.43,27.79,21.1,39.81
				c11.02,12.4,25.55,22.93,42.19,30.74c16.99,7.97,35.87,12.99,54.86,14.8c19.04,1.84,37.84,0.41,54.94-3.78
				c13.51-3.3,28.82,3.38,34.52,15.18c5.86,12.18-0.62,25.34-14.8,29.06c-1.76,0.46-3.57,0.76-5.38,0.89L259.52,252.31z"/>
		</g>
		<g>
			<path class="st0" d="M17.5,223.08c-5.7-19.61-6.21-39.49-2.05-57.99c3.94-17.61,12.05-33.98,23.2-48.16
				c10.7-13.59,24.23-25.25,39.41-34.41c14.72-8.91,31.12-15.56,47.92-19.8c-15.37,6.4-29.06,14.88-40.11,24.82
				c-11.45,10.26-20.2,22.12-25.74,34.71c-5.73,13.1-8,26.96-6.67,40.49c1.35,14.07,6.56,27.71,15.02,39.98
				c6.94,10.07,1.92,24.2-11.67,31.44c-13.86,7.37-30.74,4.54-37.27-6.24c-0.81-1.32-1.4-2.67-1.81-4.08L17.5,223.08z"/>
		</g>
		<g>
			<path class="st0" d="M15.56,62.72c17.69-8.59,36.79-14.86,55.88-18.48c18.83-3.59,37.92-4.7,56.05-3.51
				c18.18,1.22,35.68,4.78,51.4,10.34c16.02,5.65,30.36,13.45,42.22,22.74C206.85,66.21,191.1,60.67,175,57.46
				c-15.96-3.21-32.47-4.21-48.4-3.13c-16.04,1.11-31.68,4.29-45.89,9.26C66.23,68.64,53.1,75.58,42,83.85
				c-9.08,6.75-23.66,7.91-32.25,2.48C1.3,81.01,2.11,71.47,11.29,65.1c1.13-0.78,2.32-1.49,3.57-2.08L15.56,62.72z"/>
		</g>
	</g>
	<path class="st1" d="M195.02,132.6c-13.72,10.62-36.76,10.62-50.67,0c-13.51-10.32-12.69-26.42,1.11-35.92
		c13.37-9.24,34.57-9.18,48.02,0.11C207.28,106.32,208.3,122.33,195.02,132.6z"/>
</g>
</svg>
